<!--?xml version="1.0" standalone="no"?-->
              <svg id="sw-js-blob-svg" viewBox="0 0 100 100" xmlns="http://www.w3.org/2000/svg" version="1.1">
                    <defs> 
                        <linearGradient id="sw-gradient" x1="0" x2="1" y1="1" y2="0">
                            <stop id="stop1" stop-color="rgba(236.339, 248, 55, 1)" offset="0%"></stop>
                            <stop id="stop2" stop-color="rgba(221.674, 7.385, 21.179, 0.14)" offset="100%"></stop>
                        </linearGradient>
                    </defs>
                <path fill="url(#sw-gradient)" d="M26.7,-30.6C32.4,-27.1,33.2,-16.5,31.9,-8C30.6,0.6,27.3,7.2,24,14.9C20.8,22.5,17.6,31.1,11.3,35.2C5,39.3,-4.5,38.9,-11.1,34.7C-17.6,30.4,-21.2,22.4,-26.7,14.6C-32.2,6.8,-39.7,-0.8,-39.4,-7.7C-39.1,-14.7,-31.1,-21.1,-23.2,-24.2C-15.4,-27.3,-7.7,-27.2,1.4,-28.9C10.5,-30.6,21.1,-34.1,26.7,-30.6Z" width="100%" height="100%" transform="translate(50 50)" stroke-width="0" style="transition: all 0.3s ease 0s;"></path>
              </svg>