<!--?xml version="1.0" standalone="no"?-->
              <svg id="sw-js-blob-svg" viewBox="0 0 100 100" xmlns="http://www.w3.org/2000/svg" version="1.1">
                    <defs> 
                        <linearGradient id="sw-gradient" x1="0" x2="1" y1="1" y2="0">
                            <stop id="stop1" stop-color="rgba(236.339, 248, 55, 1)" offset="0%"></stop>
                            <stop id="stop2" stop-color="rgba(7.385, 221.674, 211.873, 1)" offset="100%"></stop>
                        </linearGradient>
                    </defs>
                <path fill="url(#sw-gradient)" d="M24.5,-31.8C30,-24.6,31.4,-15.2,33.6,-5.5C35.7,4.1,38.6,14,35,20.2C31.4,26.3,21.4,28.7,12.5,30C3.7,31.3,-3.9,31.5,-10.2,28.9C-16.6,26.2,-21.6,20.8,-26.7,14.3C-31.7,7.8,-36.8,0.2,-37,-7.9C-37.2,-15.9,-32.5,-24.5,-25.5,-31.4C-18.5,-38.4,-9.2,-43.7,0.1,-43.9C9.5,-44,19,-39,24.5,-31.8Z" width="100%" height="100%" transform="translate(50 50)" stroke-width="0" style="transition: all 0.3s ease 0s;"></path>
              </svg>